<svg width="54" height="54" viewBox="0 0 54 54" fill="none" xmlns="http://www.w3.org/2000/svg">
<path d="M34.2533 18.4402L22.8133 29.9068L18.4133 25.5068C18.1743 25.2277 17.8801 25.001 17.5493 24.8409C17.2184 24.6808 16.8581 24.5909 16.4908 24.5767C16.1236 24.5625 15.7573 24.6244 15.4151 24.7585C15.0729 24.8925 14.7621 25.0959 14.5023 25.3558C14.2424 25.6156 14.039 25.9264 13.905 26.2686C13.7709 26.6108 13.709 26.9771 13.7232 27.3443C13.7374 27.7116 13.8273 28.0719 13.9874 28.4028C14.1475 28.7336 14.3742 29.0278 14.6533 29.2668L20.92 35.5602C21.1692 35.8073 21.4647 36.0028 21.7896 36.1356C22.1145 36.2683 22.4624 36.3355 22.8133 36.3335C23.5129 36.3306 24.1833 36.0528 24.68 35.5602L38.0133 22.2268C38.2633 21.9789 38.4617 21.684 38.597 21.359C38.7324 21.0341 38.8021 20.6855 38.8021 20.3335C38.8021 19.9815 38.7324 19.6329 38.597 19.308C38.4617 18.983 38.2633 18.6881 38.0133 18.4402C37.5137 17.9435 36.8378 17.6647 36.1333 17.6647C35.4288 17.6647 34.753 17.9435 34.2533 18.4402ZM27 0.333496C21.7258 0.333496 16.5701 1.89747 12.1848 4.82764C7.79949 7.75781 4.38155 11.9226 2.36322 16.7953C0.344879 21.668 -0.18321 27.0297 0.845729 32.2026C1.87467 37.3754 4.41442 42.1269 8.14382 45.8563C11.8732 49.5857 16.6248 52.1255 21.7976 53.1544C26.9704 54.1834 32.3322 53.6553 37.2049 51.637C42.0776 49.6186 46.2424 46.2007 49.1725 41.8154C52.1027 37.4301 53.6667 32.2743 53.6667 27.0002C53.6667 23.4982 52.9769 20.0306 51.6368 16.7953C50.2967 13.5599 48.3324 10.6202 45.8562 8.14398C43.38 5.66775 40.4402 3.7035 37.2049 2.36338C33.9695 1.02325 30.5019 0.333496 27 0.333496ZM27 48.3335C22.7807 48.3335 18.6561 47.0823 15.1478 44.7382C11.6396 42.394 8.90524 39.0622 7.29057 35.1641C5.6759 31.2659 5.25343 26.9765 6.07658 22.8382C6.89974 18.7 8.93154 14.8987 11.9151 11.9152C14.8986 8.9317 18.6998 6.8999 22.8381 6.07674C26.9763 5.25359 31.2658 5.67606 35.1639 7.29073C39.0621 8.9054 42.3939 11.6397 44.738 15.148C47.0822 18.6562 48.3333 22.7808 48.3333 27.0002C48.3333 32.6581 46.0857 38.0843 42.0849 42.0851C38.0842 46.0859 32.658 48.3335 27 48.3335Z" fill="#06C270"/>
</svg>
