<svg width="54" height="54" viewBox="0 0 54 54" fill="none" xmlns="http://www.w3.org/2000/svg">
<path d="M27.0001 13.6668C26.2928 13.6668 25.6145 13.9478 25.1144 14.4479C24.6143 14.948 24.3334 15.6263 24.3334 16.3335V27.0002C24.3334 27.7074 24.6143 28.3857 25.1144 28.8858C25.6145 29.3859 26.2928 29.6668 27.0001 29.6668C27.7073 29.6668 28.3856 29.3859 28.8857 28.8858C29.3858 28.3857 29.6667 27.7074 29.6667 27.0002V16.3335C29.6667 15.6263 29.3858 14.948 28.8857 14.4479C28.3856 13.9478 27.7073 13.6668 27.0001 13.6668ZM29.4534 36.6535C29.395 36.4836 29.3143 36.3222 29.2134 36.1735L28.8934 35.7735C28.5184 35.4035 28.0422 35.1528 27.5249 35.0532C27.0076 34.9535 26.4723 35.0093 25.9867 35.2135C25.6636 35.3485 25.3659 35.5379 25.1067 35.7735C24.8596 36.0227 24.664 36.3182 24.5313 36.6431C24.3986 36.968 24.3314 37.3159 24.3334 37.6668C24.3376 38.0153 24.4101 38.3596 24.5467 38.6802C24.6665 39.0111 24.8576 39.3116 25.1064 39.5605C25.3553 39.8093 25.6558 40.0004 25.9867 40.1202C26.3059 40.2612 26.6511 40.3341 27.0001 40.3341C27.349 40.3341 27.6942 40.2612 28.0134 40.1202C28.3443 40.0004 28.6448 39.8093 28.8937 39.5605C29.1425 39.3116 29.3336 39.0111 29.4534 38.6802C29.59 38.3596 29.6625 38.0153 29.6667 37.6668C29.6798 37.4893 29.6798 37.311 29.6667 37.1335C29.6208 36.9634 29.5488 36.8015 29.4534 36.6535ZM27.0001 0.333496C21.7259 0.333496 16.5702 1.89747 12.1848 4.82764C7.79954 7.75781 4.3816 11.9226 2.36327 16.7953C0.344928 21.668 -0.183161 27.0297 0.845779 32.2026C1.87472 37.3754 4.41447 42.1269 8.14387 45.8563C11.8733 49.5857 16.6248 52.1255 21.7976 53.1544C26.9705 54.1834 32.3323 53.6553 37.2049 51.637C42.0776 49.6186 46.2424 46.2007 49.1726 41.8154C52.1027 37.4301 53.6667 32.2743 53.6667 27.0002C53.6667 23.4982 52.977 20.0306 51.6368 16.7953C50.2967 13.5599 48.3325 10.6202 45.8562 8.14398C43.38 5.66775 40.4403 3.7035 37.2049 2.36338C33.9696 1.02325 30.502 0.333496 27.0001 0.333496ZM27.0001 48.3335C22.7807 48.3335 18.6561 47.0823 15.1479 44.7382C11.6396 42.394 8.90529 39.0622 7.29062 35.1641C5.67595 31.2659 5.25348 26.9765 6.07663 22.8382C6.89979 18.7 8.93159 14.8987 11.9151 11.9152C14.8986 8.9317 18.6999 6.8999 22.8381 6.07674C26.9764 5.25359 31.2658 5.67606 35.164 7.29073C39.0621 8.9054 42.3939 11.6397 44.7381 15.148C47.0822 18.6562 48.3334 22.7808 48.3334 27.0002C48.3334 32.6581 46.0858 38.0843 42.085 42.0851C38.0842 46.0859 32.658 48.3335 27.0001 48.3335Z" fill="#FF3B3B"/>
</svg>
